<svg id="Layer_1" data-name="Layer 1" xmlns="http://www.w3.org/2000/svg" xmlns:xlink="http://www.w3.org/1999/xlink" viewBox="0 0 20 20"><defs><style>.cls-1{fill:url(#linear-gradient);}.cls-2{fill:#fff;}.cls-3{fill:url(#linear-gradient-2);}.cls-4{fill:url(#linear-gradient-3);}.cls-5{fill:url(#linear-gradient-4);}</style><linearGradient id="linear-gradient" x1="0.39" y1="8.93" x2="8.75" y2="0.57" gradientUnits="userSpaceOnUse"><stop offset="0" stop-color="#399"/><stop offset="1" stop-color="#069"/></linearGradient><linearGradient id="linear-gradient-2" x1="11.25" y1="8.93" x2="19.61" y2="0.57" xlink:href="#linear-gradient"/><linearGradient id="linear-gradient-3" x1="0.39" y1="19.43" x2="8.75" y2="11.07" xlink:href="#linear-gradient"/><linearGradient id="linear-gradient-4" x1="11.25" y1="19.43" x2="19.61" y2="11.07" xlink:href="#linear-gradient"/></defs><title>favicon</title><rect class="cls-1" x="0.25" y="0.25" width="8.64" height="9" rx="0.8" ry="0.8"/><path class="cls-2" d="M8.09,9.5h-7A1,1,0,0,1,0,8.45V1.05A1,1,0,0,1,1.05,0h7A1,1,0,0,1,9.14,1.05v7.4A1,1,0,0,1,8.09,9.5Zm-7-9a.54.54,0,0,0-.55.55v7.4A.54.54,0,0,0,1.05,9h7a.54.54,0,0,0,.55-.55V1.05A.54.54,0,0,0,8.09.5Z"/><rect class="cls-3" x="11.11" y="0.25" width="8.64" height="9" rx="0.8" ry="0.8"/><path class="cls-2" d="M19,9.5h-7a1,1,0,0,1-1.05-1.05V1.05a1,1,0,0,1,1.05-1h7A1,1,0,0,1,20,1.05v7.4A1,1,0,0,1,19,9.5Zm-7-9a.54.54,0,0,0-.55.55v7.4a.54.54,0,0,0,.55.55h7a.54.54,0,0,0,.55-.55V1.05A.54.54,0,0,0,19,.5Z"/><rect class="cls-4" x="0.25" y="10.75" width="8.64" height="9" rx="0.8" ry="0.8"/><path class="cls-2" d="M8.09,20h-7A1,1,0,0,1,0,19v-7.4A1,1,0,0,1,1.05,10.5h7a1,1,0,0,1,1.05,1.05V19A1,1,0,0,1,8.09,20Zm-7-9a.54.54,0,0,0-.55.55V19a.54.54,0,0,0,.55.55h7A.54.54,0,0,0,8.64,19v-7.4A.54.54,0,0,0,8.09,11Z"/><rect class="cls-5" x="11.11" y="10.75" width="8.64" height="9" rx="0.8" ry="0.8"/><path class="cls-2" d="M19,20h-7A1,1,0,0,1,10.86,19v-7.4a1,1,0,0,1,1.05-1.05h7A1,1,0,0,1,20,11.55V19A1,1,0,0,1,19,20Zm-7-9a.54.54,0,0,0-.55.55V19a.54.54,0,0,0,.55.55h7A.54.54,0,0,0,19.5,19v-7.4A.54.54,0,0,0,19,11Z"/></svg>